<svg width="9" height="5" viewBox="0 0 9 5" fill="none" xmlns="http://www.w3.org/2000/svg">
<g clip-path="url(#clip0_18_3317)">
<path fill-rule="evenodd" clip-rule="evenodd" d="M0.131659 0.166081C-0.0438423 0.350172 -0.0438423 0.647899 0.131659 0.831536L3.85046 4.72381C3.93243 4.81094 4.03109 4.88031 4.14044 4.92772C4.24979 4.97512 4.36754 4.99957 4.48653 4.99957C4.60553 4.99957 4.72328 4.97512 4.83263 4.92772C4.94198 4.88031 5.04064 4.81094 5.12261 4.72381L8.86886 0.803354C8.95258 0.714378 8.99964 0.59655 9.00048 0.473798C9.00131 0.351046 8.95586 0.232575 8.87336 0.142445C8.83262 0.0977954 8.78323 0.0620702 8.72827 0.0374813C8.6733 0.0128923 8.61392 -3.68573e-05 8.55381 -0.000505581C8.49369 -0.000974304 8.43412 0.0110274 8.37879 0.0347563C8.32345 0.0584852 8.27353 0.0934361 8.23211 0.137445L4.80446 3.72563C4.76347 3.76923 4.71413 3.80394 4.65943 3.82767C4.60474 3.85139 4.54583 3.86363 4.48631 3.86363C4.42678 3.86363 4.36788 3.85139 4.31319 3.82767C4.25849 3.80394 4.20915 3.76923 4.16816 3.72563L0.767509 0.166081C0.726558 0.122495 0.677253 0.0877848 0.622595 0.0640655C0.567938 0.0403462 0.509072 0.0281141 0.449584 0.0281141C0.390095 0.0281141 0.331229 0.0403462 0.276571 0.0640655C0.221913 0.0877848 0.172608 0.122495 0.131659 0.166081Z" fill="black"/>
</g>
<defs>
<clipPath id="clip0_18_3317">
<rect width="5" height="9" fill="white" transform="matrix(0 1 -1 0 9 0)"/>
</clipPath>
</defs>
</svg>
