<svg width="18" height="18" viewBox="0 0 18 18" fill="none" xmlns="http://www.w3.org/2000/svg">
<path d="M17.425 0.617761L17.015 3.60552C15.949 3.52367 15.17 3.74195 14.678 4.26037C14.186 4.7788 13.8853 5.47458 13.776 6.34771C13.6667 7.22084 13.6393 8.16219 13.694 9.17175H17.425V17.8076H10.414V7.53463C10.414 5.02436 11.0427 3.14167 12.3 1.88654C13.5847 0.631405 15.293 0.20848 17.425 0.617761ZM7.011 0.617761L6.601 3.60552C5.535 3.52367 4.756 3.74195 4.264 4.26037C3.772 4.7788 3.47133 5.47458 3.362 6.34771C3.25267 7.22084 3.22533 8.16219 3.28 9.17175H7.011V17.8076H0V7.53463C0 5.02436 0.628667 3.14167 1.886 1.88654C3.17067 0.631405 4.879 0.20848 7.011 0.617761Z" fill="white"/>
</svg>
